PathFileType	4	(X/Y/Z)	C:/Users/beibeiliu/ov580/test_trc\sequence.35_training_dense_right.trc
DataRate	CameraRate	NumFrames	NumMarkers	Units	OrigDataRate	OrigDataStartFrame	OrigNumFrames
120	120	10	19	mm	120	29	57
Frame#	Time	ThumbCMC			ThumbMCP			ThumbIP			ThumbTip			IndexMCP			IndexPIP			IndexTip			MiddleMCP			MiddlePIP			MiddleTip			RingMCP			RingPIP			RingTip			PinkyMCP			PinkyPIP			PinkyTip			BackHand1			BackHand2			BackHand3	
		X0	Y0	Z0	X1	Y1	Z1	X2	Y2	Z2	X3	Y3	Z3	X4	Y4	Z4	X5	Y5	Z5	X6	Y6	Z6	X7	Y7	Z7	X8	Y8	Z8	X9	Y9	Z9	X10	Y10	Z10	X11	Y11	Z11	X12	Y12	Z12	X13	Y13	Z13	X14	Y14	Z14	X15	Y15	Z15	X16	Y16	Z16	X17	Y17	Z17	X18	Y18	Z18	
28	0.233333	132.615	17.8399	128.179	119.524	8.86186	98.56	124.033	0.609538	74.5308	146.965	-13.0417	62.8293	156.379	32.2965	59.7993	142.883	11.2952	45.7819	134.262	-2.08631	79.1076	176.852	21.9617	57.7197	161.024	0.516634	43.4635	149.415	-10.4912	78.6365	191.54	7.27942	61.156	174.385	-13.4017	48.1501	159.142	-21.0693	76.723	201.907	-7.36392	73.8118	183.587	-23.0302	57.1676	164.449	-29.8458	81.8071	195.588	13.7589	119.495	191.848	7.62566	150.167	168.205	32.002	129.214	
29	0.241667	134.754	12.9902	130.721	120.344	3.52443	101.556	125.192	-3.18042	70.8972	153.822	-15.3018	65.6851	159.99	27.0455	59.79	146.648	7.74294	46.5552	138.534	-6.58183	75.8951	179.951	20.0976	57.1254	164.492	-3.71813	45.3348	150.347	-10.1315	79.3497	194.67	6.08585	64.3029	175.741	-13.8733	48.7393	160.244	-21.0356	77.8243	204.117	-7.15177	76.0039	186.856	-24.1194	57.2796	168.318	-32.5908	81.0019	197.568	11.7329	118.567	194.566	5.54152	150.24	166.948	28.0919	133.507	
30	0.25	133.562	6.71137	125.639	123.305	-6.27282	96.8206	131.26	-14.6586	72.1416	156.876	-22.1206	65.8664	157.188	23.9254	60.3662	152.352	-1.95207	46.6222	143.951	-16.0066	73.6723	180.937	17.1426	57.5703	169.569	-8.95875	43.8559	158.75	-18.4569	77.0491	197.884	6.91422	62.0967	182.556	-14.8637	47.2522	169.651	-27.6253	78.683	206.889	-4.4084	75.6384	193.203	-21.1024	57.5708	175.151	-33.3434	78.3262	198.048	12.168	119.378	192.31	7.75937	147.081	166.12	25.7986	131.791	
31	0.258333	128.826	-4.19521	123.021	123.069	-22.4933	92.5798	132.748	-31.1196	70.1574	162.546	-34.9911	64.6529	155.475	10.7886	57.8818	150.441	-18.0395	44.4192	146.004	-29.295	75.7312	176.924	8.92113	52.6451	172.558	-20.3537	42.6075	157.236	-29.7806	77.4683	192.843	2.31923	59.1155	186.032	-24.9349	48.5995	169.931	-35.637	73.5755	207.489	-6.10244	75.2059	197.274	-26.6039	58.7825	176.649	-37.9618	80.0587	188.796	14.5512	115.068	182.56	13.7637	146.47	159.254	21.103	125.824	
32	0.266667	111.618	-17.2721	125.405	110.086	-42.8222	96.8615	122.052	-54.9834	73.4345	153.325	-53.224	72.4407	137.096	-12.2716	55.2761	134.459	-45.4595	49.0702	132.326	-49.0132	79.1421	158.253	-11.6234	53.2779	155.745	-43.934	46.3565	149.571	-47.2735	83.0215	177.248	-14.7205	58.8482	173.327	-44.0521	51.7356	161.491	-51.168	84.2078	190.949	-17.3619	74.7094	188.544	-46.1244	64.847	166.378	-49.9949	90.488	173.557	9.92041	110.639	169.802	10.7877	138.842	141.13	12.5525	116.275	
33	0.275	95.3744	-22.1395	129.921	87.6884	-52.0939	113.233	99.9768	-70.0258	92.35	132.341	-69.3327	83.7574	109.451	-35.5543	57.3005	110.135	-64.8171	60.3296	112.016	-59.3025	93.6016	136.41	-33.6076	57.5299	131.242	-65.9541	57.4626	124.598	-60.8212	92.7974	154.09	-39.2295	59.3299	148.913	-67.6247	64.2229	140.865	-64.8342	95.778	167.979	-38.5348	73.8712	161.364	-66.9705	75.765	144.195	-62.4009	107.343	152.898	1.32837	105.222	149.91	7.54638	131.577	117.918	5.25247	117.235	
34	0.283333	83.2784	-7.43296	131.71	64.6072	-35.8036	119.895	71.5346	-55.5692	106.099	99.5521	-68.3268	96.2102	89.6714	-34.2377	66.1076	74.1049	-60.882	75.5297	80.439	-50.7849	104.622	103.599	-41.8345	60.0895	94.3331	-68.381	69.4418	95.9098	-52.3133	104.739	122.389	-50.065	66.8446	111.253	-74.5918	76.6299	104.59	-58.5258	109.032	137.817	-54.803	80.1507	122.688	-76.7119	90.8834	112.662	-60.1482	116.381	142.435	-9.37979	105.893	143.43	3.82017	132.178	112.199	8.54913	113.349	
35	0.291667	87.7172	18.931	133.42	55.9289	0.710066	120.307	47.3954	-21.6051	107.356	70.4137	-41.4338	105.035	71.4145	-12.0779	64.9129	53.9237	-31.0637	75.9127	57.7577	-21.0402	107.267	84.02	-30.4231	61.7966	62.4039	-46.6051	76.692	74.3194	-32.7788	108.987	98.022	-46.1065	71.693	71.0594	-55.7331	85.8452	80.6581	-39.4411	115.866	104.84	-55.4163	83.1245	84.0526	-63.8069	95.9425	86.1205	-42.5606	121.73	134.351	-11.5379	102.311	145.418	-1.36176	131.223	121.241	14.8316	111.297	
36	0.3	104.158	41.2691	126.771	72.0893	44.0362	119.641	51.1317	24.547	101.702	58.1236	-2.59419	103.307	77.2193	16.2605	63.137	48.003	16.4857	71.3558	57.2125	17.2421	103.052	76.0078	0.652235	60.7468	49.5189	-3.95695	73.304	64.7339	7.98395	107.138	79.1474	-20.8784	71.0866	50.9394	-17.1902	85.6535	65.6042	-4.49389	112.372	83.4226	-36.4745	85.6379	55.0516	-28.1125	99.4131	65.349	-11.4456	119.436	125.863	-12.1907	103.082	140.606	-6.8496	125.261	131.859	19.5141	111.825	
37	0.308333	127.75	47.7631	128.472	101.768	69.0741	114.338	74.3968	60.3313	95.5113	67.0147	31.87	99.0769	95.2276	38.1607	60.8511	67.3514	48.28	64.0695	75.6832	54.3851	97.3413	84.8474	21.2279	56.9664	57.5696	31.3906	67.7829	74.875	34.3868	101.267	78.2027	2.67957	66.2938	52.664	20.971	77.2191	66.6521	28.7551	103.932	71.9342	-11.9959	80.4805	50.905	8.21322	89.1226	68.5979	20.8967	111.961	121.647	-11.1207	103.233	134.037	-14.4544	125.694	137.976	16.7237	106.45	
